<?xml version="1.0" encoding="UTF-8" standalone="no"?>
<svg
   xmlns:dc="http://purl.org/dc/elements/1.1/"
   xmlns:cc="http://creativecommons.org/ns#"
   xmlns:rdf="http://www.w3.org/1999/02/22-rdf-syntax-ns#"
   xmlns:svg="http://www.w3.org/2000/svg"
   xmlns="http://www.w3.org/2000/svg"
   xmlns:xlink="http://www.w3.org/1999/xlink"
   xmlns:sodipodi="http://sodipodi.sourceforge.net/DTD/sodipodi-0.dtd"
   xmlns:inkscape="http://www.inkscape.org/namespaces/inkscape"
   width="793"
   height="300"
   id="svg2"
   version="1.1">
  <g
     inkscape:label="Layer 1"
     inkscape:groupmode="layer"
     id="layer1"
     transform="translate(21.482673,-275.82353)">
    <path
       d="m 273.8231,425.76836 c 0,82.76105 -66.11054,149.85457 -147.6579,149.85457 -81.547366,0 -147.647873,-67.09352 -147.647873,-149.85457 0,-82.77107 66.100507,-149.86459 147.647873,-149.86459 81.54736,0 147.6579,67.09352 147.6579,149.86459"
       id="path3"
       style="fill:#ffffff"
       clip-path="none" />
    <line
       x1="25.82086"
       y1="417.55344"
       x2="43.845505"
       y2="417.55344"
       id="line7"
       style="fill:#007ac2"
       clip-path="none" />
    <line
       x1="48.940918"
       y1="413.40082"
       x2="30.495073"
       y2="413.40082"
       id="line9"
       style="fill:#007ac2"
       clip-path="none" />
    <line
       x1="173.72954"
       y1="413.40082"
       x2="103.94786"
       y2="413.40082"
       id="line11"
       style="fill:#007ac2"
       clip-path="none" />
    <line
       x1="104.90076"
       y1="417.55344"
       x2="179.10565"
       y2="417.55344"
       id="line13"
       style="fill:#007ac2"
       clip-path="none" />
    <line
       x1="83.475609"
       y1="413.40082"
       x2="60.024651"
       y2="413.40082"
       id="line15"
       style="fill:#007ac2"
       clip-path="none" />
    <line
       x1="65.120064"
       y1="417.55344"
       x2="85.200813"
       y2="417.55344"
       id="line17"
       style="fill:#007ac2"
       clip-path="none" />
    <line
       x1="30.023672"
       y1="437.62469"
       x2="49.262024"
       y2="437.62469"
       id="line19"
       style="fill:#007ac2"
       clip-path="none" />
    <line
       x1="43.965805"
       y1="433.48187"
       x2="25.389559"
       y2="433.48187"
       id="line21"
       style="fill:#007ac2"
       clip-path="none" />
    <line
       x1="85.501709"
       y1="433.48187"
       x2="64.999763"
       y2="433.48187"
       id="line23"
       style="fill:#007ac2"
       clip-path="none" />
    <line
       x1="59.693443"
       y1="437.62469"
       x2="83.947006"
       y2="437.62469"
       id="line25"
       style="fill:#007ac2"
       clip-path="none" />
    <line
       x1="135.88464"
       y1="393.30997"
       x2="92.242126"
       y2="393.30997"
       id="line27"
       style="fill:#007ac2"
       clip-path="none" />
    <line
       x1="95.88324"
       y1="397.46259"
       x2="147.38957"
       y2="397.46259"
       id="line29"
       style="fill:#007ac2"
       clip-path="none" />
    <line
       x1="179.67746"
       y1="433.48187"
       x2="105.07127"
       y2="433.48187"
       id="line31"
       style="fill:#007ac2"
       clip-path="none" />
    <line
       x1="104.20866"
       y1="437.62469"
       x2="174.35124"
       y2="437.62469"
       id="line33"
       style="fill:#007ac2"
       clip-path="none" />
    <line
       x1="148.55307"
       y1="453.54272"
       x2="96.625542"
       y2="453.54272"
       id="line35"
       style="fill:#007ac2"
       clip-path="none" />
    <line
       x1="93.205132"
       y1="457.69534"
       x2="137.22874"
       y2="457.69534"
       id="line37"
       style="fill:#007ac2"
       clip-path="none" />
    <path
       d="M 245.49718,337.22979 H 7.1241021 c -3.6611055,5.06537 -7.05138949,10.38149 -10.0705477,15.93835 H 255.54766 c -3.01916,-5.54682 -6.37935,-10.87298 -10.05048,-15.93835"
       id="path39"
       style="fill:#007ac2"
       clip-path="none" />
    <path
       d="m 126.31565,575.82354 c 25.1864,0 48.94848,-6.40944 69.6914,-17.72377 H 56.594163 c 20.793073,11.31433 44.504997,17.72377 69.721487,17.72377"
       id="path41"
       style="fill:#007ac2"
       clip-path="none" />
    <path
       d="m 135.19258,373.21896 h 129.4928 c -2.01611,-5.44652 -4.36323,-10.76264 -6.97115,-15.91828 H -5.1029872 c -2.6279716,5.15564 -4.9449998,10.47176 -6.9611158,15.91828 h 80.574412 c 18.325589,-4.80457 41.004381,-6.58999 66.682271,0"
       id="path43"
       style="fill:#007ac2"
       clip-path="none" />
    <path
       d="m 243.461,468.68856 c -4.08238,3.37022 -10.10064,2.81855 -13.49092,-1.24378 -0.0903,-0.13039 -3.30001,-3.95198 -8.58605,-9.74957 h -42.18797 c -9.7596,6.80063 -19.70979,12.50794 -29.27881,15.95841 h 116.41312 c 1.73526,-5.19576 3.19971,-10.52192 4.34318,-15.95841 h -24.50434 c 0.47143,1.18359 0.7222,2.38724 0.7222,3.61095 0,2.7684 -1.17356,5.47662 -3.43041,7.3824"
       id="path45"
       style="fill:#007ac2"
       clip-path="none" />
    <path
       d="m 88.089701,462.44963 c 14.273299,1.69514 30.803439,0.89271 49.139059,-4.75442 H 93.205218 c -1.594838,1.70517 -3.30001,3.30001 -5.115517,4.75442"
       id="path47"
       style="fill:#007ac2"
       clip-path="none" />
    <path
       d="m 43.895644,469.17002 0.03009,-0.12037 c -7.78361,-3.74135 -13.942292,-7.61309 -18.235314,-10.63225 -0.341035,-0.21064 -0.672039,-0.49149 -1.013073,-0.72219 h -42.739646 c 1.153499,5.43649 2.638002,10.76265 4.343175,15.95841 h 68.327262 c -3.641045,-1.39423 -7.001238,-2.82858 -10.13073,-4.32312 l -0.581765,-0.16048"
       id="path49"
       style="fill:#007ac2"
       clip-path="none" />
    <path
       d="m 49.562834,554.01739 c 0.120366,-0.01 0.240731,-0.0702 0.351065,-0.0702 H 202.91802 c 0.0602,0 0.12036,0.0401 0.18055,0.0401 7.55291,-4.67418 14.63439,-10.04046 21.22438,-15.96844 H 28.278271 c 6.61005,5.92798 13.711592,11.31432 21.284563,15.99853"
       id="path51"
       style="fill:#007ac2"
       clip-path="none" />
    <path
       d="M 6.6727329,513.79538 H 245.93851 c 3.67114,-5.07539 6.99121,-10.40155 9.98028,-15.93834 H -3.2975105 c 2.99909735,5.53679 6.3392292,10.86295 9.9702434,15.93834"
       id="path53"
       style="fill:#007ac2"
       clip-path="none" />
    <path
       d="m 67.34678,477.78615 h -79.651613 c 1.975994,5.45656 4.3030527,10.77268 6.8608113,15.92832 H 258.04524 c 2.55776,-5.15564 4.89485,-10.47176 6.8909,-15.92832 H 136.53666 c -26.9016,7.01127 -50.382831,5.0754 -69.18988,0"
       id="path55"
       style="fill:#007ac2"
       clip-path="none" />
    <path
       d="M 228.07433,317.13885 H 24.526891 c -5.115517,4.96506 -9.89,10.28119 -14.283326,15.95841 H 242.36768 c -4.38329,-5.67722 -9.14775,-10.99335 -14.29335,-15.95841"
       id="path57"
       style="fill:#007ac2"
       clip-path="none" />
    <path
       d="m 24.175826,534.14712 c 0.300913,-0.17052 0.631917,-0.29089 0.993012,-0.29089 H 228.7263 c 5.08543,-4.95503 9.77967,-10.27115 14.12284,-15.90825 H 9.7320129 c 4.4635391,5.74743 9.2681131,11.15383 14.4438131,16.19914"
       id="path59"
       style="fill:#007ac2"
       clip-path="none" />
    <path
       d="m 201.96513,296.98772 c -0.14043,0.01 -0.24073,0.0802 -0.40122,0.0802 H 50.505695 c -7.633155,4.67418 -14.82497,10.00033 -21.485173,15.94838 H 223.61079 c -6.72039,-5.97814 -13.9423,-11.36448 -21.64566,-16.02863"
       id="path61"
       style="fill:#007ac2"
       clip-path="none" />
    <path
       d="m 203.1086,412.73884 c 5.75746,-5.54682 10.89304,-10.83286 15.12588,-15.26631 h -33.93293 c 6.5298,4.81461 12.84897,10.01037 18.80705,15.26631"
       id="path63"
       style="fill:#007ac2"
       clip-path="none" />
    <path
       d="M 147.38958,397.4625 H 95.883342 c 3.620984,4.69424 6.389378,10.07055 8.064458,15.93835 h 69.78168 c -8.72647,-6.51978 -17.7338,-12.197 -26.3399,-15.93835"
       id="path65"
       style="fill:#007ac2"
       clip-path="none" />
    <path
       d="m 273.49209,413.40085 c -0.42127,-5.39637 -1.13343,-10.7125 -2.10638,-15.93835 h -27.30282 c -1.71521,1.976 -6.99121,8.02434 -14.58424,15.93835 h 43.99344"
       id="path67"
       style="fill:#007ac2"
       clip-path="none" />
    <path
       d="m 54.477743,412.16711 c 1.996055,0 3.851684,0.43131 5.546826,1.23374 h 23.451136 c -4.443479,-8.59608 -13.290315,-14.48394 -23.441106,-14.48394 -3.510649,0 -6.890902,0.6921 -10.110669,2.02615 l -0.100304,-0.21064 c -7.833763,4.03223 -14.293357,8.52586 -19.328631,12.66843 h 18.445953 c 1.705173,-0.80243 3.560801,-1.23374 5.536795,-1.23374"
       id="path69"
       style="fill:#007ac2"
       clip-path="none" />
    <path
       d="m 19.79253,397.4625 h -38.546927 c -0.982982,5.22585 -1.705172,10.54198 -2.136481,15.93835 H 4.0347309 C 7.9566274,407.87408 13.754214,402.28714 19.79253,397.4625"
       id="path71"
       style="fill:#007ac2"
       clip-path="none" />
    <path
       d="m 54.477743,438.69758 c -1.845598,0 -3.590892,-0.39118 -5.215821,-1.06322 H 30.023565 c 5.346217,4.44348 12.337424,9.35839 20.943529,13.63135 l 1.63496,0.42128 c 3.169614,0.90273 5.095456,1.43435 7.432545,1.43435 10.552008,0 19.649605,-6.35929 23.912536,-15.48698 h -24.25357 c -1.594838,0.67204 -3.350163,1.06322 -5.215822,1.06322"
       id="path73"
       style="fill:#007ac2"
       clip-path="none" />
    <path
       d="m 203.06847,438.78786 c -5.76749,5.06536 -11.88605,10.10064 -18.15507,14.75475 h 32.62898 c -4.10245,-4.33314 -8.95717,-9.41857 -14.47391,-14.75475"
       id="path75"
       style="fill:#007ac2"
       clip-path="none" />
    <path
       d="M 3.7839702,437.62433 H -20.930999 c 0.411247,5.38634 1.093316,10.69243 2.046206,15.91828 H 19.260918 C 13.332936,448.7581 7.615593,443.15109 3.7839702,437.62433"
       id="path77"
       style="fill:#007ac2"
       clip-path="none" />
    <path
       d="m 271.49604,453.54261 c 0.95289,-5.22585 1.64499,-10.53194 2.05624,-15.91828 h -44.70561 c 6.98118,7.33224 12.07663,13.16995 14.44381,15.91828 h 28.20556"
       id="path79"
       style="fill:#007ac2"
       clip-path="none" />
    <path
       d="m 96.625593,453.54261 h 51.927517 c 8.38543,-3.78147 17.20218,-9.41857 25.79825,-15.91828 H 104.2086 c -1.50457,5.84774 -4.10245,11.21401 -7.583007,15.91828"
       id="path81"
       style="fill:#007ac2"
       clip-path="none" />
    <path
       d="m 55.520908,377.37156 h -69.029392 c -1.745294,5.20579 -3.209737,10.52192 -4.393327,15.93835 h 43.180984 c 0.541643,-0.3611 1.073256,-0.75229 1.604868,-1.10335 6.098499,-4.21278 15.888195,-10.04046 28.636867,-14.835"
       id="path83"
       style="fill:#007ac2"
       clip-path="none" />
    <path
       d="m 178.51399,393.30991 h 43.60226 c 4.87479,-5.29607 7.8137,-8.73651 7.92404,-8.8669 3.41034,-4.0222 9.44866,-4.53375 13.49092,-1.10335 2.22676,1.88572 3.3602,4.57388 3.3602,7.27206 0,0.93283 -0.14043,1.83557 -0.39119,2.70822 h 24.01284 c -1.1535,-5.41643 -2.65806,-10.73256 -4.39333,-15.93835 H 148.4829 c 0.96292,0.35106 1.93587,0.68207 2.90882,1.06322 8.9672,3.44044 18.15507,8.70641 27.12227,14.8651"
       id="path85"
       style="fill:#007ac2"
       clip-path="none" />
    <path
       d="m 87.277236,388.93664 c 1.765355,1.35411 3.400315,2.80852 4.965061,4.3833 h 43.642383 c -18.0648,-5.5368 -34.46454,-6.21887 -48.607444,-4.3833"
       id="path87"
       style="fill:#007ac2"
       clip-path="none" />
    <path
       d="m 217.19131,425.77839 c 2.71825,2.64804 5.28604,5.22586 7.67328,7.7134 h 48.99863 c 0.11034,-2.5377 0.20061,-5.07539 0.20061,-7.65321 0,-2.77843 -0.10031,-5.55686 -0.25076,-8.2751 h -48.31656 c -2.58785,2.60791 -5.36628,5.35624 -8.3052,8.21491"
       id="path89"
       style="fill:#007ac2"
       clip-path="none" />
    <path
       d="M 1.4368505,417.55345 H -21.201821 c -0.140426,2.71824 -0.2307,5.49667 -0.2307,8.2751 0,2.57782 0.07021,5.11551 0.190578,7.65321 H 1.2663333 c -1.38419878,-2.71824 -2.19666329,-5.35625 -2.19666329,-7.77358 0,-2.55776 0.88267749,-5.34622 2.36718049,-8.15473"
       id="path91"
       style="fill:#007ac2"
       clip-path="none" />
    <path
       d="m 179.10579,417.55345 h -74.2051 c 0.50153,2.71824 0.78238,5.56688 0.78238,8.45564 0,2.54773 -0.2307,5.02525 -0.61186,7.47267 h 74.60631 c 3.12949,-2.51763 6.25899,-5.11552 9.27814,-7.74349 -3.18967,-2.78846 -6.50974,-5.52676 -9.84987,-8.18482"
       id="path93"
       style="fill:#007ac2"
       clip-path="none" />
    <path
       d="M 85.200938,417.55345 H 65.120025 c 1.63496,2.18663 2.607911,4.9149 2.607911,7.88391 0,3.00913 -1.013073,5.78756 -2.728276,8.0444 h 20.502191 c 0.651978,-2.38724 1.043164,-4.86475 1.043164,-7.47267 0,-2.95897 -0.47143,-5.77752 -1.344077,-8.45564"
       id="path95"
       style="fill:#007ac2"
       clip-path="none" />
    <path
       d="m 41.22755,425.43736 c 0,-2.96901 0.982982,-5.69728 2.617942,-7.88391 H 25.820816 c -3.550771,3.36019 -5.927982,6.24895 -7.051389,8.15473 1.093316,1.81551 3.340132,4.56385 6.620081,7.77358 h 18.576349 c -1.715203,-2.24681 -2.738307,-5.03527 -2.738307,-8.0444"
       id="path97"
       style="fill:#007ac2"
       clip-path="none" />
    <path
       d="m 126.31565,275.82353 c -24.725,0 -48.035706,6.18877 -68.487744,17.1119 H 194.8034 c -20.49216,-10.9131 -43.76275,-17.1119 -68.48775,-17.1119"
       id="path99"
       style="fill:#007ac2"
       clip-path="none" />
    <path
       d="m 350.96711,331.70303 h 13.12982 v 70.47377 h -13.71159 l -10.24106,-25.10615 c -3.47053,-8.34532 -6.29911,-16.90127 -9.38848,-27.99492 h -0.18055 c 0.44134,5.83771 1.03313,12.97937 1.39423,20.111 0.38115,7.04136 0.64195,14.09275 0.64195,19.73988 V 402.1768 H 319.4816 v -70.47377 h 13.62132 l 10.23103,25.6478 c 3.40032,8.16477 6.1988,16.54017 9.40854,28.01498 h 0.20061 c -0.49149,-6.40944 -0.95289,-13.25019 -1.33405,-20.0107 -0.37112,-6.77054 -0.64194,-13.56114 -0.64194,-19.85021 v -13.80187"
       id="path101"
       style="fill:#000000"
       clip-path="none" />
    <path
       d="m 372.55258,381.30349 c -0.27082,15.59731 5.43649,22.26754 19.53927,22.26754 12.51797,0 17.39276,-7.52282 16.90127,-19.35872 h -12.18697 c 0.18055,6.68026 -1.13344,9.96021 -5.66719,9.96021 -3.64104,0 -6.25898,-1.31398 -6.36932,-8.26507 v -7.70337 h 24.41406 v -7.13163 c 0,-14.46387 -1.77539,-23.31071 -18.76693,-23.31071 -12.01645,0 -18.41586,7.1517 -17.86419,19.62955 v 13.9122 m 12.21706,-12.49791 v -2.14652 c 0,-4.79454 -0.27082,-9.49881 5.81765,-9.49881 4.90488,0 6.28908,1.70517 6.39941,7.06142 v 4.58391 h -12.21706 z"
       id="path103"
       style="fill:#000000"
       clip-path="none" />
    <path
       d="m 453.54827,381.68464 c 0.65198,3.77144 1.02311,7.51279 1.20365,11.35444 h 0.27082 c 0,-2.30699 0.78238,-10.14076 1.06323,-11.73559 l 4.04226,-32.12746 h 12.31736 L 461.72307,402.1768 H 448.3826 l -4.04226,-21.44505 c -0.86262,-4.40336 -1.24377,-8.80671 -1.60487,-13.34046 h -0.37112 c -0.19058,4.26293 -0.58177,8.46567 -1.22371,12.59821 l -3.75138,22.1873 h -13.62132 l -10.91311,-53.00077 h 12.87907 l 4.33314,32.33809 c 0.27083,1.58481 1.03314,9.38848 1.03314,11.74563 h 0.18055 c 0.17051,-3.88177 0.57173,-7.62312 1.22371,-11.3745 l 5.06536,-32.70922 h 10.07055 l 5.90792,32.50861"
       id="path105"
       style="fill:#000000"
       clip-path="none" />
    <polyline
       points="209.485,725.082 209.485,718.056 213.177,718.056 213.177,719.085 210.797,719.085   210.797,720.857 212.988,720.857 212.988,721.886 210.797,721.886 210.797,724.049 213.177,724.049 213.177,725.082   209.485,725.082 "
       id="polyline107"
       transform="matrix(10.030426,0,0,10.030426,-1602.8696,-6870.7045)"
       style="fill:#000000"
       clip-path="none" />
    <path
       d="m 554.46439,354.63258 h 0.17052 c 2.71824,-6.08847 8.18482,-6.87084 10.99334,-6.87084 6.94106,0 12.59822,4.0222 12.197,13.53105 v 40.88401 h -12.197 v -35.32716 c 0,-5.1757 -0.5617,-8.56598 -5.16567,-8.7365 -4.60396,-0.19058 -6.20883,4.10245 -5.99819,9.77967 v 34.29402 h -12.25718 v -53.00077 h 12.25718 v 5.44652"
       id="path109"
       style="fill:#000000"
       clip-path="none" />
    <path
       d="m 586.20066,408.10478 c 0.662,8.91705 7.33224,11.90612 15.41676,11.90612 16.72072,0 19.70979,-8.61614 19.70979,-19.43897 v -51.38587 h -12.20703 v 5.45655 h -0.16049 c -1.70517,-4.79454 -5.08542,-6.94105 -10.64228,-6.87084 -7.89394,0.18055 -12.40764,4.31308 -12.67846,18.89732 v 19.15812 c 0.27082,8.43559 2.34712,17.75385 12.67846,17.75385 5.25594,-0.27082 8.74653,-1.87569 11.18393,-6.93102 l 0.18054,0.16048 v 6.13863 c 0,4.11247 -0.91277,8.26507 -6.10853,8.26507 -1.49453,0 -2.80852,-0.19058 -3.73131,-0.76232 -0.86262,-0.47143 -1.42433,-1.20365 -1.42433,-2.32705 h -12.21705 m 22.91952,-39.21897 v 15.87816 c 0,6.10853 -1.98603,9.39851 -5.91795,9.39851 -3.74135,0 -5.08543,-4.03223 -5.34622,-9.11765 v -17.66358 c 0.38116,-5.24592 -0.18055,-10.24107 5.52677,-10.24107 5.7374,0 5.91795,7.51279 5.7374,11.74563 z"
       id="path111"
       style="fill:#000000"
       clip-path="none" />
    <rect
       x="628.95044"
       y="331.7034"
       width="12.196998"
       height="70.47377"
       id="rect113"
       style="fill:#000000"
       clip-path="none" />
    <path
       d="m 683.7967,402.1768 c -0.68207,-2.45745 -1.03313,-4.89485 -1.03313,-7.43254 v -31.2849 c 0.20061,-6.94106 -0.84256,-15.68759 -17.45294,-15.68759 -15.2964,0 -18.59641,7.05139 -18.49611,17.09185 h 11.64532 c -0.11033,-4.79455 0.83253,-7.70337 6.36933,-7.70337 3.30001,0 5.1757,0.40122 5.7374,2.72828 1.04316,4.33314 -0.83253,6.68026 -6.01826,8.8368 -9.55899,3.94196 -18.10492,6.85078 -18.10492,18.95751 0,10.9131 4.29303,15.88819 14.16297,15.88819 4.14256,0 7.88391,-2.44742 10.73255,-6.85078 h 0.18055 c -0.18055,1.87569 -0.11034,3.77144 0.74225,5.45655 h 11.53499 m -13.23013,-22.1873 c -0.27082,5.06537 1.04316,14.18302 -6.20883,14.18302 -4.49364,0 -5.71735,-2.7383 -5.71735,-6.75047 0,-2.27691 0.27082,-4.88482 2.0763,-6.40945 3.18968,-2.638 6.85078,-4.69424 9.84988,-6.78056 v 5.75746 z"
       id="path115"
       style="fill:#000000"
       clip-path="none" />
    <path
       d="m 704.56971,354.63258 h 0.18055 c 2.75837,-6.08847 8.19486,-6.87084 11.00338,-6.87084 6.95108,0 12.57815,4.0222 12.22709,13.53105 v 40.88401 h -12.22709 v -35.32716 c 0,-5.1757 -0.56171,-8.56598 -5.16567,-8.7365 -4.60397,-0.19058 -6.20883,4.10245 -6.01826,9.77967 v 34.29402 h -12.21706 v -53.00077 h 12.21706 v 5.44652"
       id="path117"
       style="fill:#000000"
       clip-path="none" />
    <path
       d="m 759.24557,402.1768 h 12.23711 v -70.47377 h -12.23711 v 18.14504 c 0,1.59484 0.11033,3.08937 0.41124,4.67418 h -0.21064 c -2.45745,-5.06537 -5.71734,-6.83072 -10.90307,-6.75048 -7.90397,0.18055 -12.48788,4.24287 -12.77876,18.80705 v 19.15811 c 0.29088,8.44562 2.44742,17.8341 12.77876,17.8341 4.80457,-0.27082 8.1748,-1.69514 10.52192,-7.05139 h 0.18055 v 5.65716 m 0,-17.39276 c 0,6.10853 -1.96597,9.39851 -5.8979,9.39851 -3.78147,0 -5.07539,-4.03223 -5.36627,-9.11765 v -17.66358 c 0.36109,-5.24592 -0.19058,-10.24107 5.54682,-10.24107 5.71735,0 5.91795,7.51279 5.71735,11.74563 v 15.87816 z"
       id="path119"
       style="fill:#000000"
       clip-path="none" />
    <path
       d="m 335.38985,502.32058 3.47053,-17.82407 h 15.41677 l 3.48055,17.82407 h 14.08272 L 355.88201,431.88692 H 338.1081 l -16.80096,70.43366 h 14.08271 m 9.49882,-48.1962 c 0.65197,-3.27995 0.93283,-6.4596 1.30395,-9.75961 0.10031,-1.59483 0.30092,-3.1997 0.4614,-4.6842 h 0.21064 c 0.18055,1.47447 0.38116,3.08937 0.47143,4.6842 0.3611,3.30001 0.65198,6.47966 1.30396,9.75961 l 3.57083,20.03076 h -11.2742 l 3.95199,-20.03076 z"
       id="path121"
       style="fill:#000000"
       clip-path="none" />
    <path
       d="m 413.0755,449.3499 h -12.19699 v 5.36627 h -0.18055 c -2.25685,-5.18573 -5.55686,-6.8909 -10.62222,-6.78056 -7.90398,0.19057 -12.38758,4.22281 -12.68849,18.77695 v 19.17818 c 0.30091,8.45565 2.36718,17.84413 12.68849,17.84413 4.88481,-0.28086 8.26507,-1.78542 10.62222,-7.05139 h 0.18055 v 23.33077 H 413.0755 V 449.3499 m -12.19699,35.59798 c 0,6.10853 -1.98603,9.40854 -5.91796,9.40854 -3.75138,0 -5.07539,-4.04226 -5.34621,-9.0976 v -17.69367 c 0.37112,-5.24591 -0.21064,-10.23104 5.52676,-10.23104 5.73741,0 5.92798,7.51279 5.73741,11.74563 v 15.86814 z"
       id="path123"
       style="fill:#000000"
       clip-path="none" />
    <path
       d="m 445.68442,494.43666 h -0.19058 c -1.86566,6.29911 -5.43649,9.21796 -11.3745,9.30824 -9.6593,0 -11.80581,-4.98513 -11.80581,-13.82193 V 449.3499 h 12.20702 v 36.25999 c 0,2.33709 -0.1003,4.99515 1.20366,7.04135 1.03313,1.14347 2.1766,1.69515 3.7614,1.69515 5.73741,0 5.6371,-6.47966 5.6371,-10.64229 v -34.36423 h 12.20703 v 52.97068 h -11.64532 v -7.87389"
       id="path125"
       style="fill:#000000"
       clip-path="none" />
    <path
       d="m 502.33626,502.32058 c -0.63191,-2.41734 -1.03313,-4.87479 -1.03313,-7.40246 v -31.2849 c 0.19058,-6.98117 -0.82249,-15.68758 -17.45294,-15.68758 -15.32649,0 -18.60644,7.04136 -18.5262,17.08181 h 11.65536 c -0.10031,-4.77448 0.85258,-7.69334 6.38938,-7.69334 3.26992,0 5.16567,0.38116 5.71734,2.71825 1.0532,4.33314 -0.84255,6.67023 -5.99819,8.83681 -9.559,3.97204 -18.12498,6.86081 -18.12498,18.98759 0,10.89304 4.32311,15.87817 14.16296,15.87817 4.1225,0 7.88391,-2.44743 10.71249,-6.86081 h 0.19058 c -0.19058,1.87568 -0.0903,3.7614 0.74225,5.43649 h 11.56508 m -13.25019,-22.16725 c -0.27082,5.08543 1.0532,14.18303 -6.18877,14.18303 -4.51369,0 -5.73741,-2.71825 -5.73741,-6.78057 0,-2.25685 0.29089,-4.86476 2.06627,-6.36932 3.21977,-2.64803 6.83072,-4.7143 9.85991,-6.78057 v 5.74743 z"
       id="path127"
       style="fill:#000000"
       clip-path="none" />
    <path
       d="m 522.52751,458.73837 h 0.22067 c 1.47447,-3.86171 2.9991,-5.98816 4.76445,-7.50275 3.48056,-2.91886 5.83771,-2.73831 7.62313,-2.83861 v 14.48393 c -6.76051,-0.64195 -11.92618,1.04316 -12.11676,8.83681 v 30.61286 h -12.23712 v -52.97068 h 11.74563 v 9.37844"
       id="path129"
       style="fill:#000000"
       clip-path="none" />
    <path
       d="m 540.58228,431.88692 h 12.21706 v 11.07359 h -12.21706 v -11.07359 z m 0,17.46298 h 12.21706 v 52.97068 H 540.58228 V 449.3499 z"
       id="path131"
       style="fill:#000000"
       clip-path="none" />
    <path
       d="m 583.89366,494.43666 h -0.17052 c -1.89575,6.29911 -5.46658,9.21796 -11.40459,9.30824 -9.66933,0 -11.81585,-4.98513 -11.81585,-13.82193 V 449.3499 h 12.197 v 36.25999 c 0,2.33709 -0.0802,4.99515 1.23374,7.04135 1.03314,1.14347 2.15655,1.69515 3.76141,1.69515 5.71735,0 5.64713,-6.47966 5.64713,-10.64229 v -34.36423 h 12.197 v 52.97068 h -11.64532 v -7.87389"
       id="path133"
       style="fill:#000000"
       clip-path="none" />
    <path
       d="m 615.74026,454.79642 h 0.18055 c 2.75837,-5.82768 7.7134,-6.67024 11.65535,-6.86081 4.52373,-0.11034 10.54198,1.85562 11.36448,6.86081 2.44742,-4.59394 6.2991,-6.86081 12.30733,-6.86081 9.00732,0 12.95931,5.607 12.95931,11.26416 v 43.12081 h -12.20703 v -35.78856 c 0,-4.80458 -0.4614,-9.47876 -5.81765,-9.19791 -5.26597,0.29089 -6.18877,3.94196 -6.18877,10.14077 v 34.85573 h -12.21706 v -36.4606 c 0,-4.69424 -0.38115,-8.6362 -6.01825,-8.5359 -5.71735,0.12037 -6.01826,4.31309 -6.01826,10.14077 v 34.85573 h -12.23712 v -52.97068 h 12.23712 v 5.43649"
       id="path135"
       style="fill:#000000"
       clip-path="none" />
  </g>
</svg>
